<?xml version="1.0" encoding="UTF-8" standalone="no"?>
<svg
   xmlns:dc="http://purl.org/dc/elements/1.1/"
   xmlns:cc="http://creativecommons.org/ns#"
   xmlns:rdf="http://www.w3.org/1999/02/22-rdf-syntax-ns#"
   xmlns:svg="http://www.w3.org/2000/svg"
   xmlns="http://www.w3.org/2000/svg"
   id="svg131"
   version="1.1"
   viewBox="0 0 123.66869 98.076576"
   height="98.076576mm"
   width="123.66869mm">
  <defs
     id="defs125">
    <filter
       style="color-interpolation-filters:sRGB"
       id="filter1125-4-2-3">
      <feColorMatrix
         result="result2"
         type="luminanceToAlpha"
         in="SourceGraphic"
         id="feColorMatrix1115-4-5-8" />
      <feDiffuseLighting
         lighting-color="#ffffff"
         in="result2"
         diffuseConstant="0.5"
         result="result1"
         surfaceScale="15"
         id="feDiffuseLighting1119-9-5-0">
        <feDistantLight
           azimuth="225"
           elevation="10"
           id="feDistantLight1117-1-0-4" />
      </feDiffuseLighting>
      <feComposite
         k4="0"
         k1="0"
         result="result9"
         operator="arithmetic"
         k2="1"
         k3="0.8"
         in2="SourceGraphic"
         id="feComposite1121-7-5-9" />
      <feComposite
         in2="SourceGraphic"
         result="result7"
         operator="in"
         in="result9"
         id="feComposite1123-5-2-7" />
    </filter>
  </defs>
  <metadata
     id="metadata128">
    <rdf:RDF>
      <cc:Work
         rdf:about="">
        <dc:format>image/svg+xml</dc:format>
        <dc:type
           rdf:resource="http://purl.org/dc/dcmitype/StillImage" />
        <dc:title></dc:title>
      </cc:Work>
    </rdf:RDF>
  </metadata>
  <g
     transform="translate(-11.493032,-7.6581418)"
     id="layer1">
    <path
       id="path1389-62-9-5"
       transform="matrix(-0.24685788,0,0,0.24685788,130.00916,10.246598)"
       style="fill:#ffffff;fill-opacity:1;stroke-width:2.67613;filter:url(#filter1125-4-2-3)"
       d="m 20.875,32.155075 v 0.0273 c 5.858856,-12.714373 5.884872,-12.768934 0,-0.0273 z m 87.62494,3.361362 C 90.625818,40.22079 76.47771,48.175151 62.017475,61.684656 47.55724,75.194161 26.497149,99.390725 24.522105,131.30841 c 0.974632,56.46541 32.559896,85.38247 69.604815,117.69429 45.44877,43.97549 79.28749,64.12228 135.49805,104.70308 v -43.998 C 163.96784,266.7612 126.41686,235.40598 87.0918,194.27227 73.98834,180.44401 54.55313,152.3238 59.64844,130.44219 65.059378,107.20513 81.74762,87.711485 97.5625,78.604295 c 15.81488,-9.27079 32.85727,-14.06836 51.54883,-14.06836 41.50793,5.51258 56.52836,34.65808 80.51367,68.470705 V 77.631635 C 213.07455,58.106136 201.20583,48.357839 183.13097,39.448335 165.0561,30.538831 126.37406,30.812084 108.49994,35.516437 Z m 329.85107,-3.361392 v 0.0273 h -0.0488 z m -0.0488,0.0273 -47.21679,26.162111 c 6.16234,4.5127 10.92025,8.11384 16.59179,13.86719 59.7035,74.037454 6.97495,136.592424 -42.57812,176.791024 -49.11296,39.84162 -79.2875,64.12232 -135.49806,104.70313 v -43.99801 c 65.65713,-42.94662 103.20812,-74.30184 142.53318,-115.43555 13.10346,-13.82826 33.28867,-40.69847 27.44336,-63.83008 -5.8453,-23.13162 -22.09918,-42.730704 -37.91406,-51.837894 -15.81488,-9.27079 -32.85727,-14.06836 -51.54883,-14.06836 -41.50794,5.51258 -56.52837,34.65808 -80.51368,68.470704 V 77.631609 c 11.72258,-16.47632 17.99256,-23.102424 31.12109,-30.814451 16.66016,-8.79362 29.28433,-14.33483 49.81642,-14.63477 h 0.42188 1.70312 z" />
  </g>
</svg>
