<?xml version="1.0" standalone="no"?>
<!DOCTYPE svg PUBLIC "-//W3C//DTD SVG 20010904//EN"
 "http://www.w3.org/TR/2001/REC-SVG-20010904/DTD/svg10.dtd">
<svg version="1.0" xmlns="http://www.w3.org/2000/svg"
 width="531.000000pt" height="531.000000pt" viewBox="0 0 531.000000 531.000000"
 preserveAspectRatio="xMidYMid meet">
<metadata>
Created by potrace 1.14, written by Peter Selinger 2001-2017
</metadata>
<g transform="translate(0.000000,531.000000) scale(0.100000,-0.100000)"
fill="#000000" stroke="none">
<path d="M599 4318 c-48 -67 -83 -149 -84 -195 0 -24 -3 -43 -6 -43 -11 0 6
-62 28 -105 12 -22 52 -71 89 -109 79 -79 69 -70 194 -163 117 -86 154 -124
187 -188 25 -48 40 -156 27 -190 -5 -12 -50 -30 -66 -27 -5 1 -8 -3 -8 -9 0
-5 -4 -8 -8 -5 -5 3 -25 -4 -45 -14 -21 -11 -37 -18 -37 -15 0 3 -16 -1 -35
-9 -19 -8 -35 -12 -35 -8 0 4 -4 2 -8 -5 -15 -23 -62 -22 -130 4 -51 19 -87
25 -152 26 -109 1 -167 -13 -255 -63 -79 -44 -154 -126 -189 -205 -9 -22 -21
-49 -26 -60 -22 -48 -28 -145 -15 -225 4 -30 8 -62 9 -70 0 -8 3 -17 6 -20 4
-3 14 -41 23 -85 10 -44 19 -89 22 -100 3 -11 7 -30 10 -42 3 -13 7 -33 10
-45 3 -13 7 -34 10 -48 3 -14 9 -39 14 -57 5 -17 7 -34 3 -37 -3 -3 -1 -6 4
-6 5 0 10 -8 10 -17 1 -24 13 -83 21 -108 4 -11 7 -27 8 -35 2 -30 44 -109 80
-148 37 -42 119 -88 168 -94 14 -2 29 -7 33 -11 4 -4 13 -2 21 4 9 9 13 8 13
0 0 -8 5 -9 19 -1 14 7 22 7 26 -1 5 -7 14 -4 27 8 11 10 21 17 22 15 0 -2 14
2 30 8 23 8 31 8 39 -2 6 -9 7 -8 3 5 -5 15 -2 17 17 12 16 -5 18 -4 8 3 -12
9 -12 13 3 27 9 9 23 15 30 12 8 -3 24 6 37 21 l24 27 -27 -24 c-34 -30 -36
-19 -5 23 13 17 28 45 34 61 6 17 14 39 18 50 4 11 9 27 10 35 1 8 12 51 24
95 12 44 24 87 26 95 1 8 10 42 19 75 9 33 21 77 27 98 6 25 14 35 22 31 9 -5
9 -4 0 6 -7 8 -9 19 -4 29 9 15 11 24 11 37 0 3 24 -17 53 -44 28 -28 66 -61
82 -73 47 -36 50 -41 69 -89 32 -86 122 -190 269 -312 l29 -24 -44 -45 c-137
-145 -148 -159 -148 -184 0 -29 22 -76 48 -104 54 -58 655 -661 658 -661 8 0
-9 55 -33 109 -14 30 -55 99 -91 154 -163 240 -264 422 -264 473 -1 21 25 53
42 54 3 0 15 -17 27 -38 12 -20 56 -80 98 -132 42 -52 91 -113 108 -135 18
-21 44 -53 58 -70 14 -16 52 -64 84 -105 54 -70 58 -73 51 -40 -7 36 -50 127
-148 310 -31 58 -59 115 -62 127 -7 21 -5 21 46 -7 29 -16 94 -45 144 -64 113
-44 197 -66 374 -101 39 -8 151 -26 190 -31 19 -2 53 -7 75 -10 41 -6 55 -7
190 -19 115 -10 170 -12 345 -15 85 -1 159 -5 163 -7 5 -3 -2 -16 -14 -29 -18
-19 -19 -24 -6 -24 8 0 28 5 44 11 61 23 268 10 416 -27 4 -1 14 -2 22 -3 25
-2 18 -15 -37 -71 -114 -116 -277 -190 -418 -190 l-55 0 40 -35 c39 -35 126
-82 169 -91 62 -15 137 -14 201 1 127 29 224 87 362 219 54 51 112 96 151 115
165 83 312 203 394 323 18 26 38 48 43 48 6 0 39 20 75 44 36 24 66 43 68 41
6 -5 -62 -172 -118 -290 -31 -66 -65 -145 -74 -175 -10 -30 -19 -61 -21 -67
-11 -34 15 -5 58 65 27 42 66 102 88 132 47 66 202 298 215 323 10 17 11 17
28 -1 16 -18 16 -25 2 -83 -16 -70 -75 -239 -100 -288 -9 -17 -17 -34 -17 -38
-1 -5 -16 -39 -34 -78 -57 -122 -102 -285 -79 -285 5 0 25 26 44 57 40 65 106
162 199 290 100 138 263 385 278 421 16 39 10 80 -14 98 -278 206 -339 253
-341 267 -2 9 24 56 57 103 93 134 83 156 -79 180 -14 2 -34 6 -45 8 -11 3
-27 5 -37 5 -9 1 -20 13 -25 28 -8 22 -1 45 34 123 36 81 42 102 34 123 -13
34 -38 40 -150 34 -78 -4 -93 -2 -107 14 -11 13 -14 27 -10 46 3 15 9 42 12
58 3 17 9 46 15 65 15 59 11 88 -15 105 -13 8 -29 13 -37 11 -8 -3 -25 -7 -39
-10 -14 -2 -54 -11 -90 -20 -58 -14 -66 -14 -82 1 -15 14 -17 30 -13 122 4
116 -6 151 -47 151 -11 0 -63 -20 -114 -44 -89 -42 -95 -44 -114 -28 -11 10
-22 34 -25 57 -2 22 -6 49 -9 60 -2 11 -7 41 -10 67 -7 48 -25 68 -62 68 -16
0 -155 -96 -162 -112 -5 -10 -43 -10 -59 0 -6 4 -25 46 -41 93 -42 120 -47
129 -82 129 -31 0 -51 -17 -133 -113 -45 -52 -82 -60 -102 -22 -71 138 -117
188 -159 172 -8 -3 -40 -49 -71 -101 -73 -123 -79 -123 -172 -17 -37 43 -78
81 -89 83 -35 8 -59 -22 -89 -107 -34 -98 -50 -125 -74 -125 -11 0 -55 27 -99
60 -81 61 -118 73 -142 45 -13 -16 -13 -16 -30 -137 -18 -124 -27 -129 -145
-72 -49 24 -98 44 -108 44 -10 0 -15 5 -12 10 3 6 2 10 -3 10 -4 0 -16 16 -25
36 -12 24 -13 33 -5 29 7 -4 4 1 -6 9 -11 9 -16 16 -10 16 5 0 4 4 -2 8 -11 7
-43 63 -46 79 0 5 -8 13 -17 20 -9 7 -13 13 -9 13 9 0 -62 70 -92 90 -12 8
-29 21 -36 28 -8 7 -14 10 -14 5 0 -4 -4 -3 -8 2 -4 6 -38 21 -77 35 -134 47
-295 27 -415 -50 -42 -27 -126 -100 -115 -100 3 0 -3 -9 -13 -20 -9 -11 -29
-42 -43 -68 -21 -37 -36 -50 -70 -63 -66 -24 -82 -30 -106 -39 -21 -9 -22 -7
-22 48 0 66 -6 99 -21 116 -5 7 -7 16 -3 19 3 4 1 7 -6 7 -7 0 -10 4 -6 9 8
14 -87 113 -156 163 -34 24 -67 49 -74 56 -8 6 -16 12 -20 12 -3 0 -17 11 -30
24 -14 14 -38 33 -55 42 -16 10 -30 21 -30 24 0 4 -20 28 -45 53 -25 26 -45
49 -45 52 0 3 -7 20 -17 38 -39 75 -18 192 55 299 38 57 44 68 38 68 -3 0 -20
-19 -37 -42z m949 -1598 c12 -11 25 -20 30 -20 19 0 53 -50 90 -136 37 -85 38
-92 23 -112 -16 -20 -36 -26 -116 -38 -90 -12 -101 -15 -112 -31 -23 -30 -14
-63 33 -131 26 -37 53 -75 62 -85 25 -29 5 -31 -41 -4 -66 39 -154 113 -181
154 l-25 36 54 59 c59 66 119 172 131 233 5 22 9 43 10 48 1 4 2 16 3 27 0 11
5 20 9 20 5 0 18 -9 30 -20z m-358 -49 c-1 -25 -1 -25 -15 -7 -19 25 -19 33 0
33 10 0 15 -10 15 -26z m3079 -1114 c-2 -2 -21 -15 -41 -30 -40 -29 -73 -44
-117 -52 -25 -4 -29 -2 -33 24 -4 30 -3 31 147 58 17 2 32 7 34 9 2 2 7 2 9
-1 3 -3 3 -6 1 -8z"/>
<path d="M2170 3331 c0 -6 4 -13 10 -16 6 -3 7 1 4 9 -7 18 -14 21 -14 7z"/>
<path d="M935 2499 c-4 -6 -5 -12 -2 -15 2 -3 7 2 10 11 7 17 1 20 -8 4z"/>
<path d="M921 2434 c0 -11 3 -14 6 -6 3 7 2 16 -1 19 -3 4 -6 -2 -5 -13z"/>
<path d="M905 2399 c-4 -6 -5 -12 -2 -15 2 -3 7 2 10 11 7 17 1 20 -8 4z"/>
<path d="M896 2353 c-6 -14 -5 -15 5 -6 7 7 10 15 7 18 -3 3 -9 -2 -12 -12z"/>
<path d="M873 2245 c0 -8 4 -12 9 -9 5 3 6 10 3 15 -9 13 -12 11 -12 -6z"/>
<path d="M856 2203 c-6 -14 -5 -15 5 -6 7 7 10 15 7 18 -3 3 -9 -2 -12 -12z"/>
<path d="M843 2165 c-3 -9 -3 -18 -1 -21 3 -3 8 4 11 16 6 23 -1 27 -10 5z"/>
<path d="M801 1997 c-13 -21 -12 -21 5 -5 10 10 16 20 13 22 -3 3 -11 -5 -18
-17z"/>
<path d="M610 1800 c-9 -6 -10 -10 -3 -10 6 0 15 5 18 10 8 12 4 12 -15 0z"/>
</g>
</svg>
